<svg height="512pt" viewBox="0 0 512 512" width="512pt" xmlns="http://www.w3.org/2000/svg"><path d="m369.023438 279.117188c-6.8125 6.652343-9.925782 16.214843-8.3125 25.597656l10.921874 63.683594c4.050782 23.621093-20.75 41.640624-41.964843 30.484374l-57.179688-30.0625c-8.304687-4.371093-18.210937-4.433593-26.554687-.179687-.121094.058594-.242188.121094-.363282.179687l-57.183593 30.0625c-21.222657 11.15625-46.015625-6.863281-41.964844-30.484374l10.917969-63.683594c1.609375-9.382813-1.503906-18.945313-8.316406-25.597656l-46.257813-45.085938c-17.171875-16.742188-7.699219-45.886719 16.023437-49.332031l63.933594-9.292969c3.335938-.484375 6.523438-1.542969 9.414063-3.082031 5.292969-2.8125 9.644531-7.226563 12.367187-12.738281l28.589844-57.9375c10.601562-21.496094 41.257812-21.496094 51.871094 0l28.589844 57.9375c4.214843 8.535156 12.355468 14.449218 21.769531 15.820312l63.933593 9.292969c23.722657 3.445312 33.195313 32.589843 16.035157 49.332031zm0 0" fill="#ffa90b"/><path d="m369.023438 279.117188c-6.8125 6.652343-9.925782 16.214843-8.3125 25.597656l10.921874 63.683594c4.050782 23.621093-20.75 41.640624-41.964843 30.484374l-57.179688-30.0625c-8.304687-4.371093-18.210937-4.433593-26.554687-.179687-37.832032-35.535156-61.464844-86.015625-61.464844-142.019531 0-18.84375 2.679688-37.066406 7.667969-54.296875 5.292969-2.8125 9.644531-7.226563 12.367187-12.738281l28.589844-57.9375c10.601562-21.496094 41.257812-21.496094 51.871094 0l28.589844 57.9375c4.214843 8.535156 12.355468 14.449218 21.769531 15.820312l63.933593 9.292969c23.722657 3.445312 33.195313 32.589843 16.035157 49.332031zm0 0" fill="#ffb52d"/><path d="m400.347656 177.214844-63.933594-9.289063c-6.957031-1.011719-12.972656-5.378906-16.082031-11.6875l-28.59375-57.933593c-13.378906-27.105469-52.050781-27.09375-65.425781 0l-28.589844 57.933593c-3.113281 6.308594-9.125 10.675781-16.085937 11.6875l-23.726563 3.449219c-4.128906.597656-6.992187 4.433594-6.390625 8.566406.601563 4.128906 4.4375 6.996094 8.566407 6.390625l23.726562-3.445312c11.882812-1.730469 22.148438-9.1875 27.464844-19.957031l28.59375-57.933594c7.820312-15.851563 30.4375-15.957032 38.3125 0l28.589844 57.933594c5.316406 10.769531 15.582031 18.226562 27.46875 19.957031l63.933593 9.289062c17.472657 2.539063 24.5625 24.035157 11.839844 36.4375l-46.261719 45.09375c-8.328125 8.117188-12.574218 20.179688-10.492187 32.289063 11.3125 66.605468 11.25 64.148437 11.25 67.492187 0 12.5625-11.640625 22.875-24.363281 21.003907-4.128907-.605469-7.972657 2.246093-8.578126 6.375-.609374 4.128906 2.246094 7.972656 6.375 8.582031 24.195313 3.5625 45.386719-17.527344 41.136719-42.332031-11.207031-65.960938-11.230469-63.953126-11.230469-67.285157 0-5.726562 2.351563-11.300781 6.453126-15.296875l46.261718-45.097656c21.492188-20.949219 9.964844-57.835938-20.21875-62.222656zm0 0"/><path d="m315.203125 382.738281c-36.160156-17.832031-41.515625-24.800781-56.179687-24.800781-15.207032 0-20.546876 7.355469-74.15625 34.253906-15.886719 8.351563-33.941407-5.363281-30.996094-22.519531l10.921875-63.675781c2.078125-12.109375-2.160157-24.167969-10.492188-32.289063l-46.265625-45.09375c-12.746094-12.425781-5.589844-33.902343 11.839844-36.4375l10.289062-1.496093c4.132813-.601563 6.996094-4.433594 6.394532-8.566407-.597656-4.128906-4.4375-6.992187-8.566406-6.390625l-10.289063 1.492188c-18.117187 2.632812-31.265625 17.882812-31.265625 36.261718 0 9.796876 3.925781 19.015626 11.046875 25.960938l46.265625 45.09375c4.847656 4.726562 7.367188 11.773438 6.140625 18.910156l-10.917969 63.675782c-5.136718 29.945312 26.191406 52.511718 52.929688 38.457031l57.183594-30.066407c6.105468-3.210937 13.773437-3.210937 19.878906 0l39.203125 20.613282c3.695312 1.9375 8.265625.519531 10.210937-3.175782 1.941406-3.691406.519532-8.261718-3.175781-10.207031zm0 0"/><path d="m258.933594 51.480469c4.175781 0 7.558594-3.382813 7.558594-7.558594v-36.363281c0-4.175782-3.382813-7.558594-7.558594-7.558594-4.171875 0-7.558594 3.382812-7.558594 7.558594v36.363281c0 4.175781 3.386719 7.558594 7.558594 7.558594zm0 0"/><path d="m145.957031 74.648438c1.398438 2.421874 3.9375 3.777343 6.550781 3.777343 5.761719 0 9.460938-6.277343 6.539063-11.335937l-18.179687-31.492188c-2.089844-3.617187-6.710938-4.851562-10.328126-2.765625-3.613281 2.085938-4.851562 6.707031-2.765624 10.324219zm0 0"/><path d="m77.582031 140.875-31.492187-18.183594c-3.617188-2.085937-8.238282-.847656-10.324219 2.765625-2.089844 3.617188-.851563 8.238281 2.765625 10.328125l31.492188 18.179688c1.1875.6875 2.488281 1.015625 3.769531 1.015625 7.714843 0 10.464843-10.25 3.789062-14.105469zm0 0"/><path d="m51.480469 253.066406c0-4.175781-3.382813-7.558594-7.558594-7.558594h-36.363281c-4.175782 0-7.558594 3.382813-7.558594 7.558594 0 4.171875 3.382812 7.558594 7.558594 7.558594h36.363281c4.175781 0 7.558594-3.386719 7.558594-7.558594zm0 0"/><path d="m67.089844 352.953125-31.492188 18.179687c-3.617187 2.089844-4.855468 6.710938-2.765625 10.328126 2.09375 3.625 6.71875 4.84375 10.324219 2.765624l31.492188-18.183593c3.613281-2.085938 4.851562-6.707031 2.765624-10.324219-2.089843-3.617188-6.710937-4.851562-10.324218-2.765625zm0 0"/><path d="m151.199219 431.652344c-3.617188-2.085938-8.238281-.851563-10.324219 2.765625l-18.183594 31.492187c-2.085937 3.613282-.847656 8.238282 2.765625 10.324219 3.601563 2.078125 8.230469.863281 10.328125-2.765625l18.179688-31.492188c2.089844-3.613281.851562-8.238281-2.765625-10.324218zm0 0"/><path d="m253.066406 460.519531c-4.175781 0-7.558594 3.382813-7.558594 7.558594v36.363281c0 4.175782 3.382813 7.558594 7.558594 7.558594 4.171875 0 7.558594-3.382812 7.558594-7.558594v-36.363281c0-4.175781-3.386719-7.558594-7.558594-7.558594zm0 0"/><path d="m366.042969 437.351562c-2.085938-3.613281-6.707031-4.851562-10.324219-2.765624-3.613281 2.089843-4.851562 6.710937-2.765625 10.324218l18.179687 31.492188c1.402344 2.425781 3.941407 3.78125 6.554688 3.78125 5.761719 0 9.460938-6.277344 6.539062-11.339844zm0 0"/><path d="m473.46875 376.214844-31.492188-18.179688c-3.617187-2.085937-8.238281-.851562-10.324218 2.765625-2.085938 3.617188-.847656 8.238281 2.765625 10.324219 32.605469 18.417969 31.671875 19.195312 35.265625 19.195312 7.710937 0 10.460937-10.25 3.785156-14.105468zm0 0"/><path d="m504.441406 251.375h-36.363281c-4.175781 0-7.558594 3.386719-7.558594 7.558594 0 4.175781 3.382813 7.558594 7.558594 7.558594h36.363281c4.171875 0 7.558594-3.382813 7.558594-7.558594 0-4.171875-3.382812-7.558594-7.558594-7.558594zm0 0"/><path d="m444.910156 159.046875 31.492188-18.179687c3.617187-2.089844 4.855468-6.710938 2.765625-10.328126-2.085938-3.613281-6.707031-4.851562-10.324219-2.765624l-31.492188 18.183593c-3.613281 2.085938-4.851562 6.707031-2.765624 10.324219 2.09375 3.625 6.71875 4.847656 10.324218 2.765625zm0 0"/><path d="m364.574219 81.359375c2.613281 0 5.152343-1.355469 6.550781-3.777344l18.183594-31.492187c2.085937-3.617188.847656-8.238282-2.765625-10.324219-3.617188-2.089844-8.242188-.851563-10.328125 2.765625l-18.179688 31.492188c-2.917968 5.054687.769532 11.335937 6.539063 11.335937zm0 0"/></svg>